<svg id="visual" viewBox="0 0 960 540" width="960" height="540" xmlns="http://www.w3.org/2000/svg" xmlns:xlink="http://www.w3.org/1999/xlink" version="1.1"><path d="M0 339L12.3 342.2C24.7 345.3 49.3 351.7 74 354.8C98.7 358 123.3 358 148 360.8C172.7 363.7 197.3 369.3 221.8 368.7C246.3 368 270.7 361 295.2 357C319.7 353 344.3 352 369 352.3C393.7 352.7 418.3 354.3 443 356.7C467.7 359 492.3 362 517 357.7C541.7 353.3 566.3 341.7 591 336C615.7 330.3 640.3 330.7 664.8 334C689.3 337.3 713.7 343.7 738.2 351.3C762.7 359 787.3 368 812 370.7C836.7 373.3 861.3 369.7 886 362.8C910.7 356 935.3 346 947.7 341L960 336L960 541L947.7 541C935.3 541 910.7 541 886 541C861.3 541 836.7 541 812 541C787.3 541 762.7 541 738.2 541C713.7 541 689.3 541 664.8 541C640.3 541 615.7 541 591 541C566.3 541 541.7 541 517 541C492.3 541 467.7 541 443 541C418.3 541 393.7 541 369 541C344.3 541 319.7 541 295.2 541C270.7 541 246.3 541 221.8 541C197.3 541 172.7 541 148 541C123.3 541 98.7 541 74 541C49.3 541 24.7 541 12.3 541L0 541Z" fill="#0066ff"></path><path d="M0 404L12.3 406C24.7 408 49.3 412 74 408C98.7 404 123.3 392 148 388C172.7 384 197.3 388 221.8 391.2C246.3 394.3 270.7 396.7 295.2 396.5C319.7 396.3 344.3 393.7 369 393.2C393.7 392.7 418.3 394.3 443 396.2C467.7 398 492.3 400 517 403.5C541.7 407 566.3 412 591 407.8C615.7 403.7 640.3 390.3 664.8 384.2C689.3 378 713.7 379 738.2 386.3C762.7 393.7 787.3 407.3 812 408.8C836.7 410.3 861.3 399.7 886 398.8C910.7 398 935.3 407 947.7 411.5L960 416L960 541L947.7 541C935.3 541 910.7 541 886 541C861.3 541 836.7 541 812 541C787.3 541 762.7 541 738.2 541C713.7 541 689.3 541 664.8 541C640.3 541 615.7 541 591 541C566.3 541 541.7 541 517 541C492.3 541 467.7 541 443 541C418.3 541 393.7 541 369 541C344.3 541 319.7 541 295.2 541C270.7 541 246.3 541 221.8 541C197.3 541 172.7 541 148 541C123.3 541 98.7 541 74 541C49.3 541 24.7 541 12.3 541L0 541Z" fill="#0080ff"></path><path d="M0 432L12.3 432C24.7 432 49.3 432 74 436.5C98.7 441 123.3 450 148 450.3C172.7 450.7 197.3 442.3 221.8 436.5C246.3 430.7 270.7 427.3 295.2 429C319.7 430.7 344.3 437.3 369 441C393.7 444.7 418.3 445.3 443 445.5C467.7 445.7 492.3 445.3 517 447C541.7 448.7 566.3 452.3 591 451.5C615.7 450.7 640.3 445.3 664.8 440.7C689.3 436 713.7 432 738.2 430C762.7 428 787.3 428 812 432.2C836.7 436.3 861.3 444.7 886 448.5C910.7 452.3 935.3 451.7 947.7 451.3L960 451L960 541L947.7 541C935.3 541 910.7 541 886 541C861.3 541 836.7 541 812 541C787.3 541 762.7 541 738.2 541C713.7 541 689.3 541 664.8 541C640.3 541 615.7 541 591 541C566.3 541 541.7 541 517 541C492.3 541 467.7 541 443 541C418.3 541 393.7 541 369 541C344.3 541 319.7 541 295.2 541C270.7 541 246.3 541 221.8 541C197.3 541 172.7 541 148 541C123.3 541 98.7 541 74 541C49.3 541 24.7 541 12.3 541L0 541Z" fill="#1e97fd"></path><path d="M0 478L12.3 481.8C24.7 485.7 49.3 493.3 74 493.8C98.7 494.3 123.3 487.7 148 484.7C172.7 481.7 197.3 482.3 221.8 482.7C246.3 483 270.7 483 295.2 483C319.7 483 344.3 483 369 483C393.7 483 418.3 483 443 481.8C467.7 480.7 492.3 478.3 517 479.5C541.7 480.7 566.3 485.3 591 486.5C615.7 487.7 640.3 485.3 664.8 481.8C689.3 478.3 713.7 473.7 738.2 473.8C762.7 474 787.3 479 812 484C836.7 489 861.3 494 886 494.7C910.7 495.3 935.3 491.7 947.7 489.8L960 488L960 541L947.7 541C935.3 541 910.7 541 886 541C861.3 541 836.7 541 812 541C787.3 541 762.7 541 738.2 541C713.7 541 689.3 541 664.8 541C640.3 541 615.7 541 591 541C566.3 541 541.7 541 517 541C492.3 541 467.7 541 443 541C418.3 541 393.7 541 369 541C344.3 541 319.7 541 295.2 541C270.7 541 246.3 541 221.8 541C197.3 541 172.7 541 148 541C123.3 541 98.7 541 74 541C49.3 541 24.7 541 12.3 541L0 541Z" fill="#4facf7"></path></svg>